<?xml version="1.0" encoding="UTF-8"?>
<svg width="32px" height="32px" viewBox="0 0 32 32" version="1.1" xmlns="http://www.w3.org/2000/svg" xmlns:xlink="http://www.w3.org/1999/xlink">
    <title>Facebook@1x</title>
    <g id="Facebook" stroke="none" stroke-width="1" fill="none" fill-rule="evenodd">
        <path d="M27,16.0404301 C27,9.94297718 22.075124,5 16,5 C9.924876,5 5,9.94297718 5,16.0404301 C5,21.2181709 8.55146,25.5626685 13.342664,26.7557415 L13.342664,19.4142088 L11.074376,19.4142088 L11.074376,16.0404301 L13.342664,16.0404301 L13.342664,14.5866704 C13.342664,10.8288613 15.037016,9.08712304 18.712776,9.08712304 C19.409648,9.08712304 20.612124,9.22424519 21.104044,9.36141149 L21.104044,12.4197873 C20.8444,12.3923628 20.393488,12.3786285 19.833236,12.3786285 C18.029544,12.3786285 17.332628,13.0643717 17.332628,14.8472687 L17.332628,16.0404301 L20.925624,16.0404301 L20.308392,19.4142088 L17.332628,19.4142088 L17.332628,27 C22.779212,26.3397381 27,21.6850928 27,16.0404301" id="facebook-glyph" fill="#FFFFFF"></path>
    </g>
</svg>