<?xml version="1.0" encoding="UTF-8"?>
<svg width="32px" height="32px" viewBox="0 0 32 32" version="1.1" xmlns="http://www.w3.org/2000/svg" xmlns:xlink="http://www.w3.org/1999/xlink">
    <title>Instagram@1x</title>
    <g id="Instagram" stroke="none" stroke-width="1" fill="none" fill-rule="evenodd">
        <path d="M11.4443231,5.07693164 C10.2739112,5.13215183 9.47464312,5.31893248 8.77591605,5.59349342 C8.05276873,5.8753144 7.43984253,6.25349571 6.82999636,6.86553782 C6.22015018,7.47757994 5.84460638,8.09094206 5.56476355,8.81518456 C5.29394081,9.51544698 5.11045895,10.3153697 5.05875843,11.4864338 C5.00705791,12.6574978 4.99561779,13.0339191 5.00133785,16.0210895 C5.00705791,19.0082598 5.02025804,19.3827011 5.07701862,20.5561851 C5.13289918,21.7263692 5.31902107,22.525412 5.59358384,23.2243544 C5.8758467,23.9474969 6.25359052,24.560199 6.86585672,25.1702611 C7.47812291,25.7803232 8.09104912,26.1549845 8.81705646,26.4352655 C9.51666354,26.7056464 10.3168116,26.890007 11.4876635,26.9412672 C12.6585153,26.9925274 13.0353792,27.0044074 16.0216894,26.9986874 C19.0079996,26.9929674 19.3839834,26.9797673 20.5572553,26.9241072 C21.7305271,26.868447 22.5253952,26.6810063 23.2245623,26.4077654 C23.9477096,26.1248444 24.5608558,25.7477631 25.170482,25.135281 C25.7801081,24.5227989 26.1554319,23.9089967 26.4350548,23.1843142 C26.7060975,22.4847118 26.8902394,21.684569 26.9410599,20.514605 C26.9923204,19.3404609 27.0044205,18.9655796 26.9987005,15.9788493 C26.9929804,12.992119 26.9795603,12.6176777 26.9238997,11.4446336 C26.8682391,10.2715896 26.6818973,9.47496684 26.4075545,8.77558442 C26.1248516,8.05244192 25.7475478,7.44017981 25.1355016,6.8296777 C24.5234554,6.21917559 23.9092092,5.84407429 23.1847419,5.56511333 C22.4846948,5.29429239 21.6849867,5.10971175 20.5141348,5.05911158 C19.343283,5.0085114 18.9664192,4.99553136 15.9790089,5.00125138 C12.9915987,5.0069714 12.6175949,5.01973144 11.4443231,5.07693164 M11.5728044,24.9623604 C10.5002935,24.9157202 9.9179476,24.7375196 9.52986368,24.5883591 C9.01593848,24.3903584 8.64985477,24.1509976 8.26309086,23.7679762 C7.87632694,23.3849549 7.63872454,23.0175537 7.43808251,22.5047319 C7.28738098,22.1166505 7.10587915,21.5349685 7.05571864,20.4624648 C7.00115809,19.3032808 6.98971797,18.9552396 6.98333791,16.0184495 C6.97695784,13.0816593 6.98817796,12.7340581 7.03899847,11.5744341 C7.08475893,10.5028104 7.26406075,9.91980838 7.41300226,9.53194704 C7.61100426,9.01736526 7.84948667,8.651944 8.23339056,8.26540266 C8.61729444,7.87886132 8.98359815,7.6408205 9.49686334,7.44017981 C9.88450727,7.28881928 10.4661932,7.10885866 11.538264,7.05781849 C12.6983357,7.0028183 13.0459393,6.99181826 15.982309,6.98543824 C18.9186787,6.97905821 19.2671622,6.99005825 20.427674,7.04109843 C21.4993048,7.08773859 22.0825307,7.2652792 22.4699546,7.41509972 C22.9840998,7.61310041 23.3499635,7.85092123 23.7365074,8.23548256 C24.1230514,8.62004389 24.3613138,8.98502515 24.5619558,9.49938693 C24.7135373,9.88592826 24.8934992,10.4673903 24.9440997,11.540114 C24.9993202,12.700178 25.0118604,13.0479992 25.0171404,15.9841293 C25.0224205,18.9202595 25.0120804,19.2689607 24.9612598,20.4281447 C24.9143994,21.5006484 24.7366376,22.0832104 24.5872561,22.4717318 C24.3892541,22.9854335 24.1505516,23.3517348 23.7664277,23.7380561 C23.3823039,24.1243775 23.0164402,24.3624183 22.502955,24.563059 C22.115751,24.7141995 21.5334051,24.8946001 20.4622143,24.9456403 C19.3021426,25.0002005 18.9545391,25.0116405 16.0170693,25.0180206 C13.0795996,25.0244006 12.7330961,25.0125205 11.5730244,24.9623604 M20.5403132,10.1208891 C20.5412061,10.65482 20.8636669,11.1356317 21.3573157,11.3390943 C21.8509646,11.542557 22.4185707,11.4285959 22.7954269,11.0503576 C23.1722832,10.6721192 23.2841628,10.1041028 23.0788898,9.61120672 C22.8736168,9.11831063 22.3916226,8.79761738 21.8576884,8.79868185 C21.1288367,8.80014119 20.5390989,9.39204178 20.5403132,10.1208891 M10.3520015,16.0109694 C10.3581721,19.1305802 12.8917177,21.6537689 16.0106893,21.6478394 C19.1296608,21.6418889 21.6546264,19.1085801 21.6486968,15.9889694 C21.6427463,12.8693586 19.1085406,10.3455099 15.989129,10.3516586 C12.8697175,10.3578299 10.3460719,12.8917987 10.3520015,16.0109694 M12.3333447,16.0070094 C12.3293464,13.9819237 13.9677651,12.3370194 15.9928643,12.3330038 C18.0179636,12.3290028 19.662881,13.9674084 19.6668992,15.9924942 C19.6709028,18.0175799 18.0324885,19.6624885 16.0073892,19.6665102 C15.0348633,19.6685462 14.1013705,19.2841136 13.4123291,18.5978 C12.7232877,17.9114863 12.335159,16.9795293 12.3333447,16.0070094" id="instagram-glyph" fill="#FFFFFF" fill-rule="nonzero"></path>
    </g>
</svg>