<?xml version="1.0" encoding="UTF-8"?>
<svg width="32px" height="32px" viewBox="0 0 32 32" version="1.1" xmlns="http://www.w3.org/2000/svg" xmlns:xlink="http://www.w3.org/1999/xlink">
    <title>Youtube@1x</title>
    <g id="Youtube" stroke="none" stroke-width="1" fill="none" fill-rule="evenodd">
        <path d="M16.0397289,8.00001512 C16.0527894,8.00003478 16.0689829,8.00006427 16.0881772,8.00010849 L16.4540887,8.00166144 C17.1936388,8.00599593 18.7341671,8.02147624 20.3049043,8.07676307 L20.828545,8.09670564 C22.3964797,8.1611922 23.9089822,8.26866979 24.5952834,8.44779911 C25.541785,8.6942108 26.2872863,9.42026036 26.5402867,10.342278 C26.9407148,11.7977096 26.992383,14.6304336 26.9990498,15.3372272 L26.999914,15.4578739 C27.0000375,15.4854753 27.0000375,15.4999879 27.0000375,15.4999879 L27.0000221,15.5106944 C27.0000066,15.5177727 26.9999758,15.5283012 26.999914,15.5421019 L26.9990498,15.6627486 C26.992383,16.3695422 26.9407148,19.2022662 26.5402867,20.6576978 C26.2872863,21.5797155 25.541785,22.305765 24.5952834,22.5522977 C23.9089822,22.7313786 22.3964797,22.8388272 20.828545,22.9032963 L20.3049043,22.9232335 C18.5596407,22.9846467 16.8516721,22.9969293 16.2382952,22.9993859 L15.7617382,22.9993859 C15.148351,22.9969293 13.4403556,22.9846467 11.6950817,22.9232335 L11.1714385,22.9032963 C9.60349785,22.8388272 8.09100527,22.7313786 7.4047541,22.5522977 C6.45812749,22.305765 5.71262621,21.5797155 5.45962578,20.6576978 C5.04447991,19.1483614 5.00430451,16.1578215 5.00041657,15.5931426 L5.00041657,15.4068332 C5.00430451,14.8421543 5.04447991,11.8516144 5.45962578,10.342278 C5.71262621,9.42026036 6.45812749,8.6942108 7.4047541,8.44779911 C8.09100527,8.26866979 9.60349785,8.1611922 11.1714385,8.09670564 L11.6950817,8.07676307 C13.2658282,8.02147624 14.8063791,8.00599593 15.5459411,8.00166144 L15.9118587,8.00010849 C15.9310534,8.00006427 15.9472471,8.00003478 15.9603079,8.00001512 Z M13.8,12.2857143 L13.8,18.7142857 L19.3,15.5001228 L13.8,12.2857143 Z" id="Combined-Shape" fill="#FFFFFF"></path>
    </g>
</svg>